<?xml version="1.0" encoding="utf-8"?>
<!-- Generator: Adobe Illustrator 24.2.3, SVG Export Plug-In . SVG Version: 6.00 Build 0)  -->
<svg version="1.1" id="Layer_1" xmlns="http://www.w3.org/2000/svg" xmlns:xlink="http://www.w3.org/1999/xlink" x="0px" y="0px"
	 viewBox="0 0 99.2 99.2" style="enable-background:new 0 0 99.2 99.2;" xml:space="preserve">
<style type="text/css">
	.st0{fill:url(#SVGID_1_);}
	.st1{fill:url(#SVGID_2_);}
	.st2{fill:url(#SVGID_3_);}
	.st3{fill:url(#SVGID_4_);}
	.st4{fill:url(#SVGID_5_);}
	.st5{fill:url(#SVGID_6_);}
	.st6{fill:#FFFFFF;}
</style>
<g>
	<linearGradient id="SVGID_1_" gradientUnits="userSpaceOnUse" x1="63.9432" y1="96.6959" x2="3.0906" y2="35.8434">
		<stop  offset="0" style="stop-color:#9C166A"/>
		<stop  offset="0.5" style="stop-color:#6B2368"/>
		<stop  offset="1" style="stop-color:#3B2B5B"/>
	</linearGradient>
	<path class="st0" d="M60.4,83.1c-9.7-0.7-17.4-3.9-22.9-9.4c-2.8-2.8-4.8-5.9-6.1-8.9v23.4c0,0.1,0,0.2,0,0.3
		c5.7,2.8,12.1,4.3,18.8,4.3c9.6,0,18.5-3.2,25.7-8.5c-1.5,0.1-3.1,0.2-4.8,0.2C67.6,84.4,63.9,84.1,60.4,83.1z"/>
	<linearGradient id="SVGID_2_" gradientUnits="userSpaceOnUse" x1="84.652" y1="75.9871" x2="23.7994" y2="15.1345">
		<stop  offset="0" style="stop-color:#9C166A"/>
		<stop  offset="0.5" style="stop-color:#6B2368"/>
		<stop  offset="1" style="stop-color:#3B2B5B"/>
	</linearGradient>
	<path class="st1" d="M63,33.8C63,25.1,55.9,18,47.2,18c-8.7,0-15.8,7.1-15.8,15.8v15.8h15.8C55.9,49.7,63,42.6,63,33.8z"/>
	<linearGradient id="SVGID_3_" gradientUnits="userSpaceOnUse" x1="61.4927" y1="99.1464" x2="0.6402" y2="38.2938">
		<stop  offset="0" style="stop-color:#9C166A"/>
		<stop  offset="0.5" style="stop-color:#6B2368"/>
		<stop  offset="1" style="stop-color:#3B2B5B"/>
	</linearGradient>
	<path class="st2" d="M17.9,52.7c-0.8,0-1.5-0.7-1.5-1.5c0-0.8,0.7-1.5,1.5-1.5h10.4c-0.3-4.7-1.7-8.2-4-10.6
		c-2.9-2.9-6.3-2.9-6.3-2.8c-10.3,0-10.5,9.8-10.5,10.2c0,0.3-0.1,0.6-0.3,0.8c0,0.8-0.1,1.6-0.1,2.4c0,15.8,8.5,29.6,21.2,37.1
		V52.7H17.9z"/>
	<linearGradient id="SVGID_4_" gradientUnits="userSpaceOnUse" x1="88.9969" y1="71.6258" x2="28.1585" y2="10.7874">
		<stop  offset="0" style="stop-color:#9C166A"/>
		<stop  offset="0.5" style="stop-color:#6B2368"/>
		<stop  offset="1" style="stop-color:#3B2B5B"/>
	</linearGradient>
	<path class="st3" d="M26.3,37c0.8,0.7,1.4,1.6,2,2.5v-5.6c0-10.4,8.5-18.8,18.8-18.8C57.5,15,66,23.5,66,33.8c0,4.3-1.5,8.3-4,11.5
		c0.8-0.1,1.7-0.2,2.5-0.2c10.5,0,19,8.5,19,19c0,7.5-4.4,14.1-10.8,17.2c2.9-0.1,5.5-0.4,7.2-0.7c8.1-7.8,13.2-18.8,13.2-31
		c0-23.8-19.3-43-43-43c-18.9,0-35,12.3-40.8,29.3c2-1.6,4.8-2.7,8.5-2.7C18,33.3,22.5,33.2,26.3,37z"/>
	<linearGradient id="SVGID_5_" gradientUnits="userSpaceOnUse" x1="71.59" y1="89.0491" x2="10.7374" y2="28.1966">
		<stop  offset="0" style="stop-color:#9C166A"/>
		<stop  offset="0.5" style="stop-color:#6B2368"/>
		<stop  offset="1" style="stop-color:#3B2B5B"/>
	</linearGradient>
	<path class="st4" d="M45.5,64.2c0-4.4,1.5-8.5,4-11.7c-0.8,0.1-1.6,0.2-2.4,0.2H31.4c0.2,3.9,2.2,20.7,20.7,25.9
		c-0.4-0.3-0.7-0.7-1-1C47.4,73.6,45.5,69,45.5,64.2z"/>
	<linearGradient id="SVGID_6_" gradientUnits="userSpaceOnUse" x1="80.4846" y1="80.1545" x2="19.632" y2="19.302">
		<stop  offset="0" style="stop-color:#9C166A"/>
		<stop  offset="0.5" style="stop-color:#6B2368"/>
		<stop  offset="1" style="stop-color:#3B2B5B"/>
	</linearGradient>
	<path class="st5" d="M80.5,64.2c0-8.8-7.2-16-16-16c-8.8,0-16,7.2-16,16c0,5.1,2.6,9,4.7,11.4c2,2.2,4.7,3.6,7.7,4.5
		c1.1,0.1,2.3,0.1,3.5,0.1C73.4,80.2,80.5,73,80.5,64.2z"/>
	<path class="st6" d="M72.8,81.3c6.4-3.1,10.8-9.6,10.8-17.2c0-10.5-8.5-19-19-19c-0.9,0-1.7,0.1-2.5,0.2c2.5-3.2,4-7.2,4-11.5
		C66,23.5,57.5,15,47.2,15c-10.4,0-18.8,8.5-18.8,18.8v5.6c-0.6-0.9-1.2-1.8-2-2.5c-3.8-3.7-8.3-3.7-8.5-3.7c-3.7,0-6.5,1.1-8.5,2.7
		c-1.2,3.6-2,7.4-2.2,11.4c0.2-0.2,0.3-0.5,0.3-0.8c0-0.4,0.2-10.2,10.5-10.2c0,0,3.4,0,6.3,2.8c2.4,2.3,3.7,5.9,4,10.6H17.9
		c-0.8,0-1.5,0.7-1.5,1.5c0,0.8,0.7,1.5,1.5,1.5h10.5v34.1c1,0.6,2,1.1,3,1.6c0-0.1,0-0.2,0-0.3V64.7c1.3,3,3.3,6.1,6.1,8.9
		c5.6,5.6,13.3,8.8,22.9,9.4c3.5,1,7.2,1.3,10.6,1.3c1.7,0,3.3-0.1,4.8-0.2c1.5-1.1,2.9-2.3,4.2-3.6C78.3,80.9,75.7,81.2,72.8,81.3z
		 M31.3,33.8c0-8.7,7.1-15.8,15.8-15.8C55.9,18,63,25.1,63,33.8c0,8.7-7.1,15.8-15.8,15.8H31.3V33.8z M31.4,52.7h15.8
		c0.8,0,1.6-0.1,2.4-0.2c-2.5,3.2-4,7.3-4,11.7c0,4.8,1.9,9.5,5.5,13.4c0.3,0.4,0.7,0.7,1,1C33.5,73.4,31.6,56.5,31.4,52.7z
		 M64.5,80.2c-1.2,0-2.4,0-3.5-0.1c-2.9-0.9-5.7-2.3-7.7-4.5c-2.2-2.4-4.7-6.2-4.7-11.4c0-8.8,7.2-16,16-16c8.8,0,16,7.2,16,16
		C80.5,73,73.4,80.2,64.5,80.2z"/>
</g>
</svg>
