<?xml version="1.0" encoding="utf-8"?>
<!-- Generator: Adobe Illustrator 24.2.3, SVG Export Plug-In . SVG Version: 6.00 Build 0)  -->
<svg version="1.1" id="레이어_1" xmlns="http://www.w3.org/2000/svg" xmlns:xlink="http://www.w3.org/1999/xlink" x="0px"
	 y="0px" viewBox="0 0 102.05 90.71" style="enable-background:new 0 0 102.05 90.71;" xml:space="preserve">
<style type="text/css">
	.st0{fill:url(#SVGID_1_);}
</style>
<linearGradient id="SVGID_1_" gradientUnits="userSpaceOnUse" x1="89.5169" y1="86.2359" x2="22.5986" y2="19.3176">
	<stop  offset="0" style="stop-color:#941A64"/>
	<stop  offset="0.5" style="stop-color:#682363"/>
	<stop  offset="1" style="stop-color:#3A2A59"/>
</linearGradient>
<path class="st0" d="M94.34,80.31c-0.21-0.9-1.1-1.45-2-1.25c-0.1,0.02-4.57,1.02-10.33,1.22c7.05-3.39,11.92-10.61,11.92-18.94
	c0-11.58-9.42-21-21-21c-0.94,0-1.86,0.08-2.78,0.21c2.73-3.52,4.37-7.92,4.37-12.71c0-11.47-9.33-20.8-20.8-20.8
	s-20.8,9.33-20.8,20.8v6.21c-0.64-1.01-1.37-1.95-2.2-2.76c-4.18-4.12-9.16-4.1-9.34-4.1c-11.76,0-14.87,9.55-14.87,14.6
	c0,0.92,0.74,1.66,1.66,1.66c0,0,0,0,0,0c0.92,0,1.66-0.74,1.67-1.66c0-0.46,0.2-11.28,11.56-11.28c0.01-0.01,3.77-0.02,6.98,3.14
	c2.61,2.57,4.09,6.49,4.45,11.65H21.38c-0.92,0-1.67,0.75-1.67,1.67s0.75,1.67,1.67,1.67h11.54v32.33c0,0.92,0.75,1.67,1.67,1.67
	s1.67-0.75,1.67-1.67V61.91c1.49,3.28,3.64,6.73,6.76,9.85c6.15,6.17,14.64,9.67,25.33,10.43c3.87,1.12,7.98,1.49,11.72,1.49
	c6.91,0,12.56-1.26,13.03-1.37C93.98,82.1,94.54,81.21,94.34,80.31z M36.25,27.83c0-9.63,7.84-17.47,17.47-17.47
	s17.47,7.84,17.47,17.47S63.35,45.3,53.72,45.3H36.25V27.83z M36.28,48.63h17.44c0.9,0,1.79-0.08,2.66-0.19
	c-2.79,3.56-4.46,8.04-4.46,12.9c0,5.32,2.11,10.44,6.1,14.8c0.36,0.4,0.74,0.77,1.13,1.13C38.69,71.47,36.51,52.89,36.28,48.63z
	 M72.86,79.02c-1.34,0-2.63-0.04-3.88-0.12c-3.26-0.98-6.25-2.55-8.5-5c-2.38-2.61-5.23-6.9-5.23-12.55
	c0-9.74,7.93-17.67,17.67-17.67S90.6,51.6,90.6,61.34S82.67,79.02,72.86,79.02z"/>
</svg>
