<?xml version="1.0" encoding="utf-8"?>
<!-- Generator: Adobe Illustrator 24.2.3, SVG Export Plug-In . SVG Version: 6.00 Build 0)  -->
<svg version="1.1" id="레이어_1" xmlns="http://www.w3.org/2000/svg" xmlns:xlink="http://www.w3.org/1999/xlink" x="0px"
	 y="0px" viewBox="0 0 266.5 120.1" style="enable-background:new 0 0 266.5 120.1;" xml:space="preserve">
<style type="text/css">
	.st0{fill:url(#SVGID_1_);}
	.st1{fill:#FFFFFF;}
	.st2{fill:#040000;}
	.st3{fill:#941A64;}
</style>
<g>
	<g>
		<linearGradient id="SVGID_1_" gradientUnits="userSpaceOnUse" x1="85.8921" y1="83.5278" x2="25.0396" y2="22.6752">
			<stop  offset="0" style="stop-color:#941A64"/>
			<stop  offset="0.5" style="stop-color:#682363"/>
			<stop  offset="1" style="stop-color:#3A2A59"/>
		</linearGradient>
		<circle class="st0" cx="55.5" cy="53.1" r="43"/>
		<path class="st1" d="M89.3,84.8c-0.2-0.8-1-1.3-1.8-1.1c-0.1,0-4.1,0.9-9.4,1.1c6.4-3.1,10.8-9.6,10.8-17.2c0-10.5-8.5-19-19-19
			c-0.9,0-1.7,0.1-2.5,0.2c2.5-3.2,4-7.2,4-11.5c0-10.4-8.5-18.8-18.8-18.8s-18.8,8.5-18.8,18.8v5.6c-0.6-0.9-1.2-1.8-2-2.5
			c-3.8-3.7-8.3-3.7-8.5-3.7c-10.7,0-13.5,8.7-13.5,13.2c0,0.8,0.7,1.5,1.5,1.5c0,0,0,0,0,0c0.8,0,1.5-0.7,1.5-1.5
			c0-0.4,0.2-10.2,10.5-10.2c0,0,3.4,0,6.3,2.8c2.4,2.3,3.7,5.9,4,10.6H23.2c-0.8,0-1.5,0.7-1.5,1.5s0.7,1.5,1.5,1.5h10.5v35.4
			c0,0.8,0.7,1.5,1.5,1.5c0.8,0,1.5-0.7,1.5-1.5V68.1c1.3,3,3.3,6.1,6.1,8.9c5.6,5.6,13.3,8.8,22.9,9.4c3.5,1,7.2,1.3,10.6,1.3
			c6.3,0,11.4-1.1,11.8-1.2C89,86.4,89.5,85.6,89.3,84.8z M36.7,37.3c0-8.7,7.1-15.8,15.8-15.8s15.8,7.1,15.8,15.8
			s-7.1,15.8-15.8,15.8H36.7V37.3z M36.7,56.1h15.8c0.8,0,1.6-0.1,2.4-0.2c-2.5,3.2-4,7.3-4,11.7c0,4.8,1.9,9.5,5.5,13.4
			c0.3,0.4,0.7,0.7,1,1C38.9,76.8,36.9,60,36.7,56.1z M69.8,83.6c-1.2,0-2.4,0-3.5-0.1c-2.9-0.9-5.7-2.3-7.7-4.5
			c-2.2-2.4-4.7-6.2-4.7-11.4c0-8.8,7.2-16,16-16s16,7.2,16,16S78.7,83.6,69.8,83.6z"/>
	</g>
	<g>
		<g>
			<path class="st2" d="M210.5,104.7c-8.3,0-14.4-2.4-18.2-7.1c-5.5-6.9-3.6-16-3.5-16.4c0.4-1.9,2.3-3.1,4.2-2.7
				c1.9,0.4,3.1,2.3,2.7,4.2c0,0-1.3,6.3,2.2,10.5c2.4,3,6.7,4.5,12.7,4.5c20.7,0,35.5-17.8,35.6-17.9c1.2-1.5,3.4-1.7,4.9-0.5
				c1.5,1.2,1.7,3.4,0.5,4.9C250.8,85,234.4,104.7,210.5,104.7z"/>
			<path class="st2" d="M174.3,76.2c-1.9,0-3.5-1.6-3.5-3.5V22c0-1.9,1.6-3.5,3.5-3.5c1.9,0,3.5,1.6,3.5,3.5v50.7
				C177.8,74.6,176.3,76.2,174.3,76.2z"/>
			<path class="st2" d="M183.8,45.8h-9.5c-1.9,0-3.5-1.6-3.5-3.5s1.6-3.5,3.5-3.5h9.5c1.9,0,3.5,1.6,3.5,3.5S185.8,45.8,183.8,45.8z
				"/>
			<path class="st2" d="M220.3,60.4c-11.6,0-21-9.4-21-21s9.4-21,21-21c11.6,0,21,9.4,21,21S231.9,60.4,220.3,60.4z M220.3,25.5
				c-7.7,0-14,6.3-14,14s6.3,14,14,14c7.7,0,14-6.3,14-14S228,25.5,220.3,25.5z"/>
			<path class="st2" d="M251.5,74.3h-61.7c-1.9,0-3.5-1.6-3.5-3.5c0-1.9,1.6-3.5,3.5-3.5h61.7c1.9,0,3.5,1.6,3.5,3.5
				C255,72.8,253.4,74.3,251.5,74.3z"/>
			<path class="st2" d="M220.3,74.3c-1.9,0-3.5-1.6-3.5-3.5V60.1c0-1.9,1.6-3.5,3.5-3.5s3.5,1.6,3.5,3.5v10.7
				C223.8,72.8,222.3,74.3,220.3,74.3z"/>
			<path class="st2" d="M174.3,48.4"/>
			<path class="st2" d="M157,74.3h-34.6c-1.9,0-3.5-1.6-3.5-3.5V53.6c0-1.4,0.9-2.7,2.2-3.2l32.5-13.2V26.6h-31.1
				c-1.9,0-3.5-1.6-3.5-3.5s1.6-3.5,3.5-3.5H157c1.9,0,3.5,1.6,3.5,3.5v16.3c0,1.4-0.9,2.7-2.2,3.2l-32.5,13.2v11.4H157
				c1.9,0,3.5,1.6,3.5,3.5C160.5,72.8,159,74.3,157,74.3z"/>
		</g>
		<g>
			<path class="st3" d="M130.9,96.1c-0.6,0-1-0.4-1-1v-4.7c0-0.3-0.1-0.4-0.2-0.5c-0.4-0.4-1.3-0.5-1.7-0.5c0,0,0,0,0,0l-3.5,0
				c-0.6,0-1-0.4-1-1s0.4-1,1-1h3.5c0,0,0,0,0,0c0.7,0,1.2-0.2,1.5-0.6c0.5-0.6,0.4-1.5,0.4-1.5c0,0,0-0.1,0-0.1c0-1.7-1.6-2-1.9-2
				l-5.5,0v11.8c0,0.6-0.4,1-1,1s-1-0.4-1-1V82.4c0-0.6,0.4-1,1-1h6.6c1.4,0.1,3.8,1.1,3.8,3.9c0,0.3,0.1,1.8-0.9,2.9
				c0,0-0.1,0.1-0.1,0.1c0.1,0.1,0.2,0.1,0.2,0.2c0.5,0.5,0.8,1.2,0.8,1.9v4.7C131.9,95.7,131.5,96.1,130.9,96.1z"/>
			<path class="st3" d="M135.5,96.1c-0.1,0-0.2,0-0.3-0.1c-0.5-0.2-0.8-0.8-0.6-1.3l4.3-11.5c0.1-0.3,0.8-1.9,2.1-1.9
				c1.3,0,2,1.1,2.2,1.8l4.2,11.6c0.2,0.5-0.1,1.1-0.6,1.3c-0.5,0.2-1.1-0.1-1.3-0.6l-4.2-11.7c-0.1-0.2-0.2-0.3-0.3-0.4
				c-0.1,0.1-0.2,0.4-0.3,0.6l-4.3,11.5C136.3,95.9,136,96.1,135.5,96.1z"/>
			<path class="st3" d="M156.1,96.1c-3.1,0-5.7-3.3-5.7-7.4c0-4.1,2.6-7.4,5.7-7.4c3.1,0,5.7,3.3,5.7,7.4
				C161.8,92.8,159.3,96.1,156.1,96.1z M156.1,83.4c-2,0-3.7,2.5-3.7,5.4s1.7,5.4,3.7,5.4s3.7-2.5,3.7-5.4S158.1,83.4,156.1,83.4z"
				/>
			<path class="st3" d="M175.3,96.1c-0.6,0-1-0.4-1-1V85c0-1.5-1.2-1.6-1.6-1.6h-3.1c-0.9,0-1.5,0.2-1.8,0.6
				c-0.4,0.5-0.4,1.2-0.4,1.2c0,0,0,0.1,0,0.1v9.8c0,0.6-0.4,1-1,1s-1-0.4-1-1v-9.8c0-0.4-0.1-1.7,0.9-2.7c0.7-0.8,1.9-1.3,3.3-1.3
				h3.1c1.5,0,3.6,1,3.6,3.6v10.2C176.3,95.7,175.9,96.1,175.3,96.1z"/>
			<path class="st3" d="M141.1,90.9c-0.1,0-0.1,0-0.2,0c-1.1-0.1-1.7-0.9-1.8-1c-0.2-0.3-0.2-0.8,0.2-1c0.3-0.2,0.8-0.2,1,0.2
				c0,0,0.3,0.4,0.7,0.4c0.4,0,0.7-0.3,1-0.5c0.3-0.3,0.8-0.3,1.1,0c0.3,0.3,0.3,0.8,0,1.1C142.4,90.6,141.7,90.9,141.1,90.9z"/>
		</g>
	</g>
</g>
</svg>
