<?xml version="1.0" encoding="utf-8"?>
<!-- Generator: Adobe Illustrator 24.2.3, SVG Export Plug-In . SVG Version: 6.00 Build 0)  -->
<svg version="1.1" id="레이어_1" xmlns="http://www.w3.org/2000/svg" xmlns:xlink="http://www.w3.org/1999/xlink" x="0px"
	 y="0px" viewBox="0 0 257 93.2" style="enable-background:new 0 0 257 93.2;" xml:space="preserve">
<style type="text/css">
	.st0{fill:url(#SVGID_1_);}
	.st1{fill:#9D166A;}
</style>
<g>
	
		<linearGradient id="SVGID_1_" gradientUnits="userSpaceOnUse" x1="88.5171" y1="17.8691" x2="21.6017" y2="84.7847" gradientTransform="matrix(1 0 0 -1 0 100.1102)">
		<stop  offset="0" style="stop-color:#9D166A"/>
		<stop  offset="0.5" style="stop-color:#6C2368"/>
		<stop  offset="1" style="stop-color:#3C2B5B"/>
	</linearGradient>
	<path class="st0" d="M93.3,76.3c-0.2-0.9-1.1-1.5-2-1.3c-0.1,0-4.6,1-10.3,1.2c7.1-3.4,11.9-10.6,11.9-18.9c0-11.6-9.4-21-21-21
		c-0.9,0-1.9,0.1-2.8,0.2c2.7-3.5,4.4-7.9,4.4-12.7C73.5,12.4,64.2,3,52.7,3s-20.8,9.3-20.8,20.8V30c-0.6-1-1.4-2-2.2-2.8
		c-4.2-4.1-9.2-4.1-9.3-4.1c-11.8,0-14.9,9.5-14.9,14.6c0,0.9,0.7,1.7,1.7,1.7l0,0c0.9,0,1.7-0.7,1.7-1.7c0-0.5,0.2-11.3,11.6-11.3
		c0,0,3.8,0,7,3.1c2.6,2.6,4.1,6.5,4.4,11.6H20.4c-0.9,0-1.7,0.8-1.7,1.7s0.8,1.7,1.7,1.7h11.5V77c0,0.9,0.8,1.7,1.7,1.7
		s1.7-0.8,1.7-1.7v-19c1.5,3.3,3.6,6.7,6.8,9.9c6.1,6.2,14.6,9.7,25.3,10.4c3.9,1.1,8,1.5,11.7,1.5c6.9,0,12.6-1.3,13-1.4
		C93,78.1,93.5,77.2,93.3,76.3z M35.3,23.8c0-9.6,7.8-17.5,17.5-17.5s17.5,7.8,17.5,17.5s-7.8,17.5-17.5,17.5H35.3V23.8z M35.3,44.6
		h17.4c0.9,0,1.8-0.1,2.7-0.2c-2.8,3.6-4.5,8-4.5,12.9c0,5.3,2.1,10.4,6.1,14.8c0.4,0.4,0.7,0.8,1.1,1.1
		C37.7,67.5,35.5,48.9,35.3,44.6z M71.9,75c-1.3,0-2.6,0-3.9-0.1c-3.3-1-6.3-2.5-8.5-5c-2.4-2.6-5.2-6.9-5.2-12.5
		c0-9.7,7.9-17.7,17.7-17.7s17.7,7.9,17.7,17.7S81.7,75,71.9,75z"/>
	<g>
		<g>
			<path d="M207,90.1c-8.3,0-14.4-2.4-18.2-7.1c-5.5-6.9-3.6-16-3.5-16.4c0.4-1.9,2.3-3.1,4.2-2.7c1.9,0.4,3.1,2.3,2.7,4.2
				c0,0-1.3,6.3,2.2,10.5c2.4,3,6.7,4.5,12.7,4.5c20.7,0,35.5-17.8,35.6-17.9c1.2-1.5,3.4-1.7,4.9-0.5c1.5,1.2,1.7,3.4,0.5,4.9
				C247.3,70.5,231,90.1,207,90.1z"/>
			<path d="M170.9,61.6c-1.9,0-3.5-1.6-3.5-3.5V7.4c0-1.9,1.6-3.5,3.5-3.5s3.5,1.6,3.5,3.5v50.7C174.4,60.1,172.8,61.6,170.9,61.6z"
				/>
			<path d="M180.4,31.3h-9.5c-1.9,0-3.5-1.6-3.5-3.5s1.6-3.5,3.5-3.5h9.5c1.9,0,3.5,1.6,3.5,3.5S182.3,31.3,180.4,31.3z"/>
			<path d="M216.9,45.9c-11.6,0-21-9.4-21-21s9.4-21,21-21s21,9.4,21,21S228.4,45.9,216.9,45.9z M216.9,10.9c-7.7,0-14,6.3-14,14
				s6.3,14,14,14c7.7,0,14-6.3,14-14S224.5,10.9,216.9,10.9z"/>
			<path d="M248,59.8h-61.7c-1.9,0-3.5-1.6-3.5-3.5s1.6-3.5,3.5-3.5H248c1.9,0,3.5,1.6,3.5,3.5S249.9,59.8,248,59.8z"/>
			<path d="M216.9,59.8c-1.9,0-3.5-1.6-3.5-3.5V45.5c0-1.9,1.6-3.5,3.5-3.5s3.5,1.6,3.5,3.5v10.7C220.3,58.2,218.8,59.8,216.9,59.8z
				"/>
			<path d="M170.9,33.9"/>
			<path d="M153.6,59.8h-34.6c-1.9,0-3.5-1.6-3.5-3.5V39c0-1.4,0.9-2.7,2.2-3.2l32.5-13.3V12.1h-31.1c-1.9,0-3.5-1.6-3.5-3.5
				s1.6-3.5,3.5-3.5h34.6c1.9,0,3.5,1.6,3.5,3.5v16.3c0,1.4-0.9,2.7-2.2,3.2l-32.5,13.3v11.4h31.1c1.9,0,3.5,1.6,3.5,3.5
				S155.5,59.8,153.6,59.8z"/>
		</g>
		<g>
			<path class="st1" d="M127.5,81.6c-0.5,0-1-0.5-1-1v-4.7c0-0.3-0.1-0.4-0.2-0.5c-0.4-0.4-1.3-0.5-1.7-0.5h0H121c-0.5,0-1-0.5-1-1
				s0.5-1,1-1h3.5h0c0.7,0,1.2-0.2,1.5-0.5c0.5-0.6,0.4-1.5,0.4-1.5c0,0,0-0.1,0-0.1c0-1.7-1.6-2-1.9-2h-5.5v11.8c0,0.5-0.5,1-1,1
				s-1-0.5-1-1V67.8c0-0.5,0.5-1,1-1h6.6c1.4,0.1,3.8,1.1,3.8,4c0,0.4,0.1,1.8-0.9,2.9c0,0-0.1,0.1-0.1,0.1c0.1,0.1,0.1,0.1,0.2,0.2
				c0.5,0.5,0.8,1.2,0.8,1.9v4.7C128.5,81.1,128,81.6,127.5,81.6z"/>
			<path class="st1" d="M132.1,81.6c-0.1,0-0.2,0-0.4-0.1c-0.5-0.2-0.8-0.8-0.6-1.3l4.3-11.5c0.1-0.3,0.8-1.9,2.1-1.9
				c1.3,0,2,1.1,2.2,1.8l4.2,11.6c0.2,0.5-0.1,1.1-0.6,1.3c-0.5,0.2-1.1-0.1-1.3-0.6l-4.2-11.6c-0.1-0.2-0.2-0.3-0.3-0.4
				c-0.1,0.1-0.2,0.4-0.3,0.6L133,80.9C132.9,81.3,132.5,81.6,132.1,81.6z"/>
			<path class="st1" d="M152.7,81.6c-3.1,0-5.7-3.3-5.7-7.4c0-4.1,2.6-7.4,5.7-7.4s5.7,3.3,5.7,7.4S155.8,81.6,152.7,81.6z
				 M152.7,68.8c-2,0-3.7,2.5-3.7,5.4s1.7,5.4,3.7,5.4s3.7-2.5,3.7-5.4S154.7,68.8,152.7,68.8z"/>
			<path class="st1" d="M171.8,81.6c-0.5,0-1-0.5-1-1V70.4c0-1.5-1.3-1.6-1.6-1.6h-3.1c-0.9,0-1.5,0.2-1.8,0.6
				c-0.4,0.5-0.4,1.2-0.4,1.2c0,0,0,0.1,0,0.1v9.8c0,0.5-0.5,1-1,1s-1-0.5-1-1v-9.8c0-0.4-0.1-1.7,0.9-2.7c0.8-0.9,1.9-1.3,3.3-1.3
				h3.1c1.5,0,3.6,1,3.6,3.6v10.2C172.8,81.1,172.4,81.6,171.8,81.6z"/>
			<path class="st1" d="M137.6,76.4c-0.1,0-0.1,0-0.2,0c-1.1-0.1-1.7-0.9-1.8-1c-0.2-0.3-0.2-0.8,0.2-1c0.3-0.2,0.8-0.2,1,0.2
				c0,0,0.3,0.4,0.7,0.4c0.4,0,0.7-0.3,1-0.5c0.3-0.3,0.8-0.3,1.1,0c0.3,0.3,0.3,0.8,0,1.1C138.9,76.1,138.3,76.4,137.6,76.4z"/>
		</g>
	</g>
</g>
</svg>
