<?xml version="1.0" encoding="utf-8"?>
<!-- Generator: Adobe Illustrator 24.2.3, SVG Export Plug-In . SVG Version: 6.00 Build 0)  -->
<svg version="1.1" id="Layer_1" xmlns="http://www.w3.org/2000/svg" xmlns:xlink="http://www.w3.org/1999/xlink" x="0px" y="0px"
	 viewBox="0 0 99.2 99.2" style="enable-background:new 0 0 99.2 99.2;" xml:space="preserve">
<style type="text/css">
	.st0{fill:#FFFFFF;}
</style>
<g>
	<path class="st0" d="M59.9,83c-9.7-0.7-17.4-3.9-22.9-9.4c-2.8-2.8-4.8-5.9-6.1-8.9V88c0,0.1,0,0.2,0,0.3
		c5.7,2.8,12.1,4.3,18.8,4.3c9.6,0,18.5-3.2,25.7-8.5c-1.5,0.1-3.1,0.2-4.8,0.2C67.1,84.4,63.4,84,59.9,83z"/>
	<path class="st0" d="M62.5,33.8c0-8.7-7.1-15.8-15.8-15.8c-8.7,0-15.8,7.1-15.8,15.8v15.8h15.8C55.4,49.6,62.5,42.5,62.5,33.8z"/>
	<path class="st0" d="M17.4,52.6c-0.8,0-1.5-0.7-1.5-1.5c0-0.8,0.7-1.5,1.5-1.5h10.4c-0.3-4.7-1.7-8.2-4-10.6
		c-2.9-2.9-6.3-2.9-6.3-2.8C7.1,36.2,6.9,46,6.9,46.4c0,0.3-0.1,0.6-0.3,0.8c0,0.8-0.1,1.6-0.1,2.4c0,15.8,8.5,29.6,21.2,37.1V52.6
		H17.4z"/>
	<path class="st0" d="M25.8,36.9c0.8,0.7,1.4,1.6,2,2.5v-5.6c0-10.4,8.5-18.8,18.8-18.8c10.4,0,18.8,8.5,18.8,18.8
		c0,4.3-1.5,8.3-4,11.5c0.8-0.1,1.7-0.2,2.5-0.2c10.5,0,19,8.5,19,19c0,7.5-4.4,14.1-10.8,17.2c2.9-0.1,5.5-0.4,7.2-0.7
		c8.1-7.8,13.2-18.8,13.2-31c0-23.8-19.3-43-43-43c-18.9,0-35,12.3-40.8,29.3c2-1.6,4.8-2.7,8.5-2.7C17.5,33.2,22,33.2,25.8,36.9z"
		/>
	<path class="st0" d="M45,64.1c0-4.4,1.5-8.5,4-11.7c-0.8,0.1-1.6,0.2-2.4,0.2H30.8c0.2,3.9,2.2,20.7,20.7,25.9
		c-0.4-0.3-0.7-0.7-1-1C46.9,73.6,45,69,45,64.1z"/>
	<path class="st0" d="M80,64.1c0-8.8-7.2-16-16-16c-8.8,0-16,7.2-16,16c0,5.1,2.6,9,4.7,11.4c2,2.2,4.7,3.6,7.7,4.5
		c1.1,0.1,2.3,0.1,3.5,0.1C72.9,80.1,80,73,80,64.1z"/>
</g>
</svg>
